<svg xmlns="http://www.w3.org/2000/svg" viewBox="0 0 1200 760" role="img" aria-labelledby="title desc">
  <title id="title">Example draft image</title>
  <desc id="desc">A quiet placeholder image for an unpublished draft post.</desc>
  <rect width="1200" height="760" fill="#f6efe3"/>
  <rect x="92" y="92" width="1016" height="576" rx="32" fill="none" stroke="#26332d" stroke-opacity=".14" stroke-width="3"/>
  <path d="M0 610C170 548 310 562 456 626C608 692 744 674 890 604C1018 542 1116 532 1200 560V760H0Z" fill="#d7c3a0"/>
  <path d="M0 658C172 606 330 626 486 682C632 734 790 712 936 642C1044 590 1138 582 1200 604V760H0Z" fill="#2e657f" opacity=".76"/>
  <circle cx="922" cy="220" r="82" fill="#42614c" opacity=".86"/>
  <text x="116" y="154" fill="#2e657f" font-family="Avenir Next, Trebuchet MS, Verdana, sans-serif" font-size="26" font-weight="800" letter-spacing="8">DRAFT IMAGE</text>
  <text x="116" y="238" fill="#26332d" font-family="Georgia, Times New Roman, serif" font-size="82" font-weight="800">Example only</text>
  <text x="120" y="300" fill="#72685d" font-family="Avenir Next, Trebuchet MS, Verdana, sans-serif" font-size="31">Replace this with a real photo.</text>
</svg>
